<svg width="571" height="236" viewBox="0 0 571 236" fill="none" xmlns="http://www.w3.org/2000/svg">
<path d="M548.44 89.4755H549.88L551.86 79.1555H550.42L548.44 89.4755ZM535.72 113.115L543.88 71.1155H552.7C557.5 71.1155 560.86 74.5355 559.78 79.9355L558.1 88.6955C557.02 94.0955 552.4 97.5155 547.6 97.5155H546.88L543.82 113.115H535.72Z" fill="#0C7B4E"/>
<path d="M534.36 158.475C529.5 158.475 526.26 155.475 527.28 150.015L528.72 142.695H536.7L535.2 150.315H536.64L538.32 141.795L532.8 138.975C531.06 138.135 529.8 137.115 530.34 134.355L532.32 124.155C533.4 118.695 537.96 115.695 542.64 115.695C547.56 115.695 550.8 118.695 549.72 124.155L548.4 130.995H540.42L541.8 123.855H540.36L538.86 131.835L544.14 134.415C546.24 135.435 547.26 136.935 546.72 139.635L544.68 150.015C543.66 155.475 539.16 158.475 534.36 158.475Z" fill="#0C7B4E"/>
<path d="M255.682 30.7281C264.379 30.5989 273.199 30.6647 281.906 30.6549C281.98 37.9343 283.237 48.8592 283.828 56.4417L287.708 105.187L290.449 139.582C290.923 145.38 291.303 152.502 292.207 158.139C284.494 158.279 276.417 158.157 268.658 158.201C268.355 149.105 267.636 139.566 267.097 130.447L237.368 130.43C236.498 131.398 233.594 139.561 232.883 141.365L223.735 164.245C218.738 176.647 215.996 188.438 200.312 188.056C179.965 187.561 164.267 193.484 159.368 168.112C158.774 165.034 156.599 158.643 155.663 155.403L143.609 114.032C140.733 114.154 137.163 114.044 134.234 114.032C132.194 125.127 129.973 137.743 128.495 148.892C120.276 146.974 114.266 147.006 105.885 148.251C107.696 138.25 109.422 128.234 111.062 118.204C112.379 110.59 114.193 101.628 114.986 94.041C128.617 94.0629 142.453 94.1675 156.079 93.9709C159.364 93.9235 162.775 93.3421 164.84 90.694C165.79 89.4751 167.438 87.114 167.787 85.3747C169.582 76.4194 171.846 66.0309 172.289 56.973C172.29 55.7428 171.381 52.1107 170.168 51.4999C163.865 48.3259 153.561 50.1827 146.588 49.8436C140.514 49.5483 135.136 49.7911 129.354 49.7887C122.567 49.7864 118.76 58.0643 115.008 62.597C109.271 69.9027 104.207 78.3031 98.2501 85.4083C90.2224 85.4538 82.1947 85.4549 74.167 85.4119L96.0288 55.5869C105.281 42.9698 109.9 31.9302 127.076 30.7579C135.636 30.4634 144.724 30.6502 153.354 30.6549C162.953 30.66 176.825 29.3972 185.197 34.4522C199.316 42.9772 193.907 59.3627 192.065 72.2183C189.426 90.6411 187.219 107.014 166.108 112.034C167.236 117.121 169.813 125.052 171.318 130.202L182.207 166.933L199.353 166.902C204.4 153.589 210.927 138.65 216.462 125.416L241.429 65.323C246.067 54.1812 251.558 41.9435 255.682 30.7281Z" fill="#0C7B4E"/>
<path d="M263.729 60.4646C264.439 63.9127 264.49 73.153 264.626 77.1947C264.998 88.2761 265.457 98.9586 266.185 110.03L247.366 110.055C245.997 110.053 246.204 110.266 245.274 109.625C245.528 108.179 246.454 106.149 247.025 104.756C253.009 90.14 258.205 75.2537 263.729 60.4646Z" fill="#EBEBEA"/>
<path d="M478.749 211.9C479.558 210.482 480.266 209.019 480.871 207.522L481.13 206.987C487.943 207.475 499.67 207.807 505.974 208.742C499.553 210.222 485.555 211.06 478.749 211.9Z" fill="#0C7B4E"/>
<path d="M521.66 199.827C508.621 200.67 494.515 201.456 481.5 202.615L482.811 201.057C483.14 199.427 483.357 197.775 483.46 196.115L507.744 197.705C510.759 197.918 517.427 198.201 520.149 198.731L520.5 199.115C521.185 199.316 520.955 199.699 521.66 199.827Z" fill="#0C7B4E"/>
<path d="M478.749 211.9C474.077 220.139 467.697 224.653 459.316 228.464C480.102 229.744 500.948 230.685 521.697 232.708C524.765 233.008 537.545 234.008 539.848 234.675C538.807 235.387 538.662 235.422 537.4 235.49L537.147 235.808C523.728 236.161 509.462 235.9 495.96 235.899L419.952 232.859H187.935L69.5675 235.889L34.8716 235.926C32.1699 235.928 20.8225 236.077 18.7316 235.803C17.0714 235.577 16.2374 235.601 15.0001 234.485C41.1052 231.1 73.2952 229.582 99.6431 228.265C95.3203 226.229 91.9177 224.415 88.3466 221.219C63.796 199.213 78.1583 158.504 111.327 157.226C124.648 156.752 137.424 163.011 144.426 174.509C149.163 182.288 149.688 187.81 150.076 196.584V198.115L148.854 203.41L147.405 207.567L145.025 212.48C139.582 220.097 137.076 222.495 128.947 227.243C157.66 225.195 190.355 225.106 219.252 224.772C264.45 224.134 309.659 224.226 354.856 225.049L402.796 226.244C411.203 226.534 422.833 227.325 431.073 227.218C421.055 221.857 414.355 215.308 410.993 204.097C408.264 194.886 409.305 184.969 413.886 176.525C418.532 167.909 426.401 161.484 435.771 158.654C445.401 155.817 455.764 156.933 464.569 161.756C473.176 166.506 479.515 174.512 482.165 183.978C483.287 187.961 483.711 192.064 483.46 196.115L482.811 201.057L481.5 202.615L481.144 206.828C481.055 207.06 480.964 207.291 480.871 207.522L478.749 211.9Z" fill="#0C7B4E"/>
<path d="M450.479 176.521C440.866 174.309 431.294 180.359 429.168 189.992C427.042 199.624 433.178 209.141 442.829 211.181C452.358 213.195 461.73 207.153 463.829 197.642C465.928 188.131 459.971 178.705 450.479 176.521Z" fill="#EBEBEA"/>
<path d="M448.956 185.97C446.08 185.063 442.938 185.789 440.752 187.866C438.566 189.942 437.679 193.042 438.436 195.961C439.193 198.879 441.475 201.157 444.395 201.909C448.747 203.029 453.199 200.48 454.435 196.159C455.671 191.839 453.241 187.32 448.956 185.97Z" fill="#0C7B4E"/>
<path d="M116.872 176.547C107.286 174.395 97.7792 180.441 95.6609 190.033C93.5426 199.625 99.6195 209.112 109.221 211.196C118.771 213.27 128.199 207.227 130.31 197.683C132.416 188.139 126.406 178.688 116.872 176.547Z" fill="#EBEBEA"/>
<path d="M115.494 185.975C111.14 184.598 106.488 186.997 105.086 191.346C103.684 195.695 106.057 200.359 110.4 201.785C114.773 203.222 119.484 200.825 120.897 196.443C122.307 192.06 119.887 187.364 115.494 185.975Z" fill="#0C7B4E"/>
<path d="M318.466 30.6679C325.588 30.6902 332.711 30.6714 339.829 30.6111L358.557 102.041L370.421 30.6949L392.591 30.6573C390.438 41.5829 388.637 53.4553 386.777 64.4765L376.494 125.002L372.939 145.734C372.356 149.26 371.761 154.252 370.946 157.617C369.924 158.451 369.705 158.163 368.103 158.179C362.289 158.163 356.478 158.176 350.663 158.221C345.695 140.353 341.325 122.19 336.56 104.257C334.758 97.4907 333.325 90.4853 331.125 83.8461C330.408 90.826 328.658 99.7539 327.522 106.854L318.916 158.155C311.696 158.293 304.052 158.162 296.801 158.166L318.466 30.6679Z" fill="#0C7B4E"/>
<path d="M223.358 1.31903C230.198 0.943913 239.52 1.20195 246.591 1.20273L289.61 1.20626L422.136 1.19686C410.014 6.76833 404.908 11.5755 397.229 21.9533L249.671 21.9349L231.55 21.8887C230.509 25.9539 229.365 34.361 228.612 38.9082L222.587 75.2275C221.588 81.2759 220.325 90.2261 218.947 96.0051C217.495 102.097 212.692 112.648 210.13 118.836L194.022 157.971L187 158.106C191.917 126.649 197.612 94.46 202.943 63.0132L208 32.4682C208.99 26.3466 209.905 20.2105 211.098 14.1253C212.515 6.89872 215.983 2.65189 223.358 1.31903Z" fill="#0C7B4E"/>
<path d="M436.375 1.61561C445.792 0.034923 464.17 0.0749078 472.5 5.61548C470.205 13.1489 467.629 14.4855 465 22.1156C434 22.1156 448.685 22.1156 440.5 22.1156C429.592 23.1657 422.881 32.6855 422.5 43.6155C422.147 53.7065 430.356 61.7539 436.375 66.4773C440.209 69.3223 444.395 72.6275 447.593 76.3985C461.979 93.3498 455.057 126.715 441.935 142.146C437.191 147.724 433.032 146.821 428.245 150.02C419.863 155.623 419.946 157.199 410.045 157.112C397.885 156.304 389.437 153.126 380 143.702L389.143 116.395C397.093 123.179 404.317 129.1 414.809 128.539C425.188 127.986 433.165 117.487 431.91 105.593C430.607 93.24 420.556 84.7204 412.5 77.6155C394.615 61.8445 397.878 23.6064 415.5 10.6155C422.245 5.61875 428.315 2.55667 436.375 1.61561Z" fill="#0C7B4E"/>
<path d="M500.528 0.224558C523.587 -0.0131176 547.049 0.21203 570.139 0.209681C569.227 6.99772 567.553 16.2977 566.5 23.1155H543C542.08 26.8079 541.728 30.6075 541.07 34.5391L536.892 59.6853L524.19 136.569C522.921 142.364 521.782 151.092 520.881 157.164C513.445 156.986 505.626 157.089 498.163 157.073C499.071 153.747 500.219 145.457 500.837 141.693L505.826 111.014L520.5 23.1155H497C498.386 16.1332 499.443 7.26633 500.528 0.224558Z" fill="#0C7B4E"/>
<path d="M232.077 166.842C252.431 167.252 273.954 166.917 294.381 166.918L411.562 166.925C408.238 172.358 405.552 178.138 404.483 184.445C404.295 185.544 404.248 186.827 403.774 187.82L402.619 188.016L222.572 188.006C226.393 182.079 229.472 173.523 232.077 166.842Z" fill="#0C7B4E"/>
<path d="M40.0076 94.195C60.9869 93.4949 85.0869 94.0517 106.325 94.025C105.25 100.854 104.069 107.408 103.086 114.296L77.3544 114.216L65.3657 187.14L65.2615 187.525C63.8104 188.415 45.9538 187.989 42.8903 187.973C45.9386 163.676 51.5946 138.494 54.6589 114.236L11.2129 114.239C16.3858 101.147 26.1583 95.076 40.0076 94.195Z" fill="#0C7B4E"/>
<path d="M476.472 32.1155L498.85 32.1656C492.381 74.258 484.331 116.447 478.038 158.594L477.686 159.098C476.429 158.963 475.223 157.815 474.15 157.038C468.821 153.182 463.359 151.038 457 149.47C462.635 119.073 466.746 88.0969 472.286 57.6521C473.79 49.3796 475.505 40.4376 476.472 32.1155Z" fill="#0C7B4E"/>
<path d="M449 0.186741C453.828 -0.234575 458.525 0.189049 463.557 0.186699L499.424 0.185134C498.292 7.04992 496.843 16.3102 495.5 23.1155C478.522 23.0881 458.692 22.8297 442 22.1155C423.5 22.1155 418.638 20.2866 403.5 30.6155C412.67 10.8226 427.75 1.58069 449 0.186741Z" fill="#0C7B4E"/>
<path d="M5.68043 152.342C12.0507 152.505 18.8015 152.397 25.2008 152.394C24.7591 154.504 24.3198 156.697 24.0222 158.83C22.2868 171.261 24.3898 154.554 22.9485 167.003L37.9828 167.018C36.9549 173.698 35.3405 181.514 34.6941 188.112L28.3399 188.113L8.73223 188.185H3.17583C3.17583 188.185 -0.464691 187.298 0.0498156 183.408C0.712722 178.395 2.29698 172.078 3.17681 167.072C4.09031 163.019 4.96819 156.577 5.68043 152.342Z" fill="#0C7B4E"/>
<path d="M482 164.115H542.5C541.537 170.65 537.041 174.615 532 179.615C526.409 185.162 509.897 185.251 502.5 185.247C494.379 185.242 497.795 185.264 489.675 185.247C488.402 175.763 486.773 172.419 482 164.115Z" fill="#0C7B4E"/>
<path d="M559.92 33.0955H558.48L553.44 59.1355H554.88L559.92 33.0955ZM545.4 58.7155L547.86 46.1155L550.26 33.5155C551.34 28.1155 556.02 24.6955 560.82 24.6955C565.68 24.6955 568.98 28.1155 567.9 33.5155L565.5 46.1155L563.04 58.7155C561.96 64.1155 557.34 67.5355 552.48 67.5355C547.68 67.5355 544.32 64.1155 545.4 58.7155Z" fill="#0C7B4E"/>
</svg>
