<svg width="431" height="334" viewBox="0 0 431 334" fill="none" xmlns="http://www.w3.org/2000/svg">
<path d="M14.8705 296.032V239.393C14.8705 238.737 14.5424 238.409 13.9957 238.409H4.04564C2.95222 238.409 2.07749 237.534 2.07749 236.441V223.429C2.07749 222.336 2.95222 221.461 4.04564 221.461H42.9713C44.0647 221.461 44.9394 222.336 44.9394 223.429V236.441C44.9394 237.534 44.0647 238.409 42.9713 238.409H32.8025C32.3651 238.409 31.8184 238.627 31.8184 239.502V296.032C31.8184 296.907 30.9437 298 29.8503 298H16.8386C15.7452 298 14.8705 296.907 14.8705 296.032ZM49.0602 296.032V223.757C49.0602 222.445 49.6069 221.461 51.2471 221.461H69.6164C82.7374 221.68 91.0474 228.677 91.0474 241.689V251.53C91.0474 260.715 87.9858 267.712 82.6281 271.977C83.7215 276.788 86.6737 282.802 96.6238 282.802H134.456C135.549 282.802 137.19 283.348 137.19 285.426V295.157C137.19 296.907 135.877 298 134.565 298H99.1387C82.3001 298 72.022 289.034 68.9604 276.788H67.3203C66.6642 276.569 66.0082 276.897 66.0082 277.772V296.032C66.0082 297.125 65.1334 298 64.04 298H51.0284C49.935 298 49.0602 297.125 49.0602 296.032ZM89.1886 277.553L103.95 222.773C104.168 221.789 104.824 221.461 105.699 221.461H121.116C121.991 221.461 122.647 222.008 122.866 222.882L137.299 277.553C137.518 278.756 136.752 279.631 135.549 279.631H122.319C121.444 279.631 120.788 279.084 120.46 278.209L119.367 273.289C119.039 271.867 118.164 271.539 116.961 271.539H108.979C107.667 271.539 106.902 271.867 106.574 273.289L105.481 278.209C105.371 279.084 104.496 279.631 103.84 279.631H90.9381C89.7353 279.631 88.9699 278.756 89.1886 277.553ZM74.2088 252.951V245.953C74.2088 240.705 73.2247 238.956 69.6164 238.956H67.3203C66.2269 238.956 66.0082 239.83 66.0082 240.377V258.637C66.0082 259.293 66.1175 259.84 67.3203 259.84H68.9604C72.022 259.84 74.2088 257.653 74.2088 252.951ZM111.604 257.653H114.993C115.759 257.653 116.415 257.434 116.087 256.122L113.9 243.329C113.79 242.564 112.806 242.564 112.697 243.329L110.401 256.122C110.182 257.434 110.729 257.653 111.604 257.653ZM171.513 296.688L158.611 267.166C158.283 266.291 157.627 266.51 157.518 267.384V296.032C157.518 297.125 156.534 298 155.44 298H142.866C141.663 298 140.57 297.125 140.57 296.032V223.429C140.57 222.336 141.663 221.461 142.866 221.461H155.331C156.206 221.461 156.971 221.898 157.299 222.773L169.327 253.498C169.545 254.373 170.42 254.263 170.639 253.279V223.429C170.639 222.336 171.513 221.461 172.716 221.461H185.728C186.821 221.461 187.805 222.336 187.805 223.429V296.032C187.805 297.125 186.821 298 185.728 298H173.482C172.716 298 171.841 297.453 171.513 296.688ZM228.013 266.291C233.59 275.913 232.168 291.221 221.125 296.469C213.689 299.968 200.568 298.984 193.789 296.36C192.368 295.923 191.821 294.72 191.93 293.517V281.927C191.93 280.396 193.133 278.975 194.992 279.74C197.944 280.833 205.051 282.473 209.316 281.817C213.252 281.38 214.892 277.662 212.487 274.601C207.566 267.494 200.459 261.261 195.867 254.263C189.525 244.532 191.384 229.443 201.552 223.757C208.988 219.821 221.343 220.149 228.232 222.336C229.763 222.773 230.419 223.866 230.419 225.178V236.769C230.419 238.299 229.216 239.612 227.248 239.174C224.296 238.081 218.063 236.878 214.127 237.643C210.081 238.627 209.097 241.908 211.284 245.079C216.423 252.295 223.53 258.856 228.013 266.291ZM234.535 296.032V223.429C234.535 222.336 235.301 221.461 236.394 221.461H249.515C250.718 221.461 251.483 222.336 251.483 223.429V296.032C251.483 297.125 250.718 298 249.515 298H236.394C235.301 298 234.535 297.125 234.535 296.032ZM268.47 296.032V239.393C268.47 238.737 268.142 238.409 267.596 238.409H257.646C256.552 238.409 255.677 237.534 255.677 236.441V223.429C255.677 222.336 256.552 221.461 257.646 221.461H296.571C297.665 221.461 298.539 222.336 298.539 223.429V236.441C298.539 237.534 297.665 238.409 296.571 238.409H286.402C285.965 238.409 285.418 238.627 285.418 239.502V296.032C285.418 296.907 284.544 298 283.45 298H270.439C269.345 298 268.47 296.907 268.47 296.032Z" fill="#0C7B4E"/>
<path fill-rule="evenodd" clip-rule="evenodd" d="M367.997 142.061C348.023 142.061 331.904 158.285 331.904 178.154C331.904 198.128 348.128 214.248 367.997 214.248C387.971 214.248 404.091 198.023 404.091 178.154C404.091 158.18 387.866 142.061 367.997 142.061ZM216.79 145.285C198.569 145.285 183.921 160.073 183.921 178.154C183.921 196.376 198.709 211.024 216.79 211.024C235.012 211.024 249.66 196.236 249.66 178.154C249.66 159.932 234.872 145.285 216.79 145.285ZM216.79 165.504C209.817 165.504 204.14 171.181 204.14 178.154C204.14 185.128 209.817 190.805 216.79 190.805C223.764 190.805 229.441 185.128 229.441 178.154C229.441 171.181 223.764 165.504 216.79 165.504ZM84.5063 145.285C66.2844 145.285 51.6367 160.073 51.6367 178.154C51.6367 196.376 66.4245 211.024 84.5063 211.024C102.728 211.024 117.376 196.236 117.376 178.154C117.411 159.932 102.623 145.285 84.5063 145.285ZM84.5063 165.504C77.5329 165.504 71.8561 171.181 71.8561 178.154C71.8561 185.128 77.5329 190.805 84.5063 190.805C91.4797 190.805 97.1565 185.128 97.1565 178.154C97.1565 171.181 91.5147 165.504 84.5063 165.504ZM166.014 187.581H133.53V177.033H166.014V187.581ZM36.6737 187.581H19.7484C14.3168 187.581 9.41092 185.268 5.87166 181.589C2.33241 177.909 0.089708 172.828 0.089708 167.502V28.244C0.089708 19.6937 -1.17181 12.6853 5.76654 5.74692C9.34084 2.20766 14.2117 0 19.6432 0H276.572C282.004 0 286.91 2.20766 290.449 5.78196C293.988 9.32122 296.231 14.2271 296.231 19.6587V45.0993L332.219 45.3446L344.905 45.4146C347.463 48.183 349.811 51.0214 351.948 53.8949C361.445 66.6502 366.771 81.7183 367.787 96.3309L425.186 118.302L430.618 176.157H413.062C404.967 112.976 325.351 120.65 322.898 176.157H296.231V182.254C296.231 185.268 293.883 187.581 290.905 187.581H267.461V176.928H285.543V19.6587C285.543 17.2057 284.562 14.998 282.88 13.316C281.198 11.634 278.99 10.6528 276.537 10.6528H19.6432C17.1903 10.6528 14.9826 11.669 13.3006 13.316C9.69126 16.7151 10.7776 22.5321 10.7776 26.9825V167.502C10.7776 170.06 11.8989 172.513 13.5459 174.265C15.2279 175.947 17.3305 177.033 19.7484 177.033H36.6387V187.581H36.6737ZM331.028 62.6904L310.598 62.3751V96.3309H349.215C347.358 84.0311 341.646 73.2381 331.028 62.6904ZM367.997 164.278C360.323 164.278 354.121 170.48 354.121 178.154C354.121 185.829 360.323 192.031 367.997 192.031C375.672 192.031 381.874 185.829 381.874 178.154C381.874 170.48 375.672 164.278 367.997 164.278Z" fill="#0C7B4E"/>
<path d="M365.236 257.13H367.726L371.149 239.288H368.659L365.236 257.13ZM343.245 298L357.352 225.388H372.601C380.899 225.388 386.708 231.3 384.841 240.636L381.937 255.781C380.07 265.117 372.082 271.03 363.784 271.03H362.539L357.249 298H343.245Z" fill="#0C7B4E"/>
<path d="M391.182 298.622C382.78 298.622 377.178 293.436 378.942 283.996L381.431 271.341H395.228L392.634 284.515H395.124L398.028 269.785L388.485 264.91C385.477 263.457 383.299 261.694 384.232 256.922L387.655 239.288C389.522 229.848 397.406 224.662 405.497 224.662C414.003 224.662 419.605 229.848 417.738 239.288L415.455 251.113H401.659L404.045 238.769H401.555L398.962 252.565L408.09 257.026C411.721 258.789 413.485 261.383 412.551 266.051L409.024 283.996C407.261 293.436 399.481 298.622 391.182 298.622Z" fill="#0C7B4E"/>
<path d="M337.252 239.184H334.763L326.049 284.204H328.539L337.252 239.184ZM312.149 283.478L316.402 261.694L320.552 239.91C322.419 230.574 330.51 224.662 338.808 224.662C347.211 224.662 352.916 230.574 351.049 239.91L346.899 261.694L342.646 283.478C340.779 292.813 332.792 298.726 324.39 298.726C316.091 298.726 310.282 292.813 312.149 283.478Z" fill="#0C7B4E"/>
</svg>
